<mxfile host="app.diagrams.net" modified="2024-04-16T01:58:38.787Z" agent="Mozilla/5.0 (Windows NT 10.0; Win64; x64) AppleWebKit/537.36 (KHTML, like Gecko) Chrome/123.0.0.0 Safari/537.36" etag="XEEISu889gpUOgSAlDqx" version="24.2.5" type="github">
  <diagram name="Page-1" id="2YBvvXClWsGukQMizWep">
    <mxGraphModel dx="1793" dy="933" grid="1" gridSize="10" guides="1" tooltips="1" connect="1" arrows="1" fold="1" page="1" pageScale="1" pageWidth="850" pageHeight="1100" math="0" shadow="0">
      <root>
        <mxCell id="0" />
        <mxCell id="1" parent="0" />
        <mxCell id="StEzSwQOxj31GvV1wuCh-3" style="edgeStyle=orthogonalEdgeStyle;rounded=0;orthogonalLoop=1;jettySize=auto;html=1;exitX=0.5;exitY=0.5;exitDx=0;exitDy=0;exitPerimeter=0;" edge="1" parent="1" source="StEzSwQOxj31GvV1wuCh-1" target="StEzSwQOxj31GvV1wuCh-2">
          <mxGeometry relative="1" as="geometry" />
        </mxCell>
        <mxCell id="StEzSwQOxj31GvV1wuCh-1" value="&lt;font style=&quot;vertical-align: inherit;&quot;&gt;&lt;font style=&quot;vertical-align: inherit;&quot;&gt;Студент&lt;/font&gt;&lt;/font&gt;" style="shape=umlActor;verticalLabelPosition=bottom;verticalAlign=top;html=1;outlineConnect=0;" vertex="1" parent="1">
          <mxGeometry x="40" y="40" width="30" height="60" as="geometry" />
        </mxCell>
        <mxCell id="StEzSwQOxj31GvV1wuCh-7" style="edgeStyle=orthogonalEdgeStyle;rounded=0;orthogonalLoop=1;jettySize=auto;html=1;" edge="1" parent="1" source="StEzSwQOxj31GvV1wuCh-2" target="StEzSwQOxj31GvV1wuCh-8">
          <mxGeometry relative="1" as="geometry">
            <mxPoint x="325" y="70" as="targetPoint" />
          </mxGeometry>
        </mxCell>
        <mxCell id="StEzSwQOxj31GvV1wuCh-2" value="&lt;font style=&quot;vertical-align: inherit;&quot;&gt;&lt;font style=&quot;vertical-align: inherit;&quot;&gt;&lt;font style=&quot;vertical-align: inherit;&quot;&gt;&lt;font style=&quot;vertical-align: inherit;&quot;&gt;&lt;font style=&quot;vertical-align: inherit;&quot;&gt;&lt;font style=&quot;vertical-align: inherit;&quot;&gt;Регистрация&amp;nbsp;&lt;/font&gt;&lt;/font&gt;&lt;/font&gt;&lt;/font&gt;&lt;/font&gt;&lt;/font&gt;" style="rounded=0;whiteSpace=wrap;html=1;" vertex="1" parent="1">
          <mxGeometry x="115" y="40" width="120" height="60" as="geometry" />
        </mxCell>
        <mxCell id="StEzSwQOxj31GvV1wuCh-11" style="edgeStyle=orthogonalEdgeStyle;rounded=0;orthogonalLoop=1;jettySize=auto;html=1;" edge="1" parent="1" source="StEzSwQOxj31GvV1wuCh-6" target="StEzSwQOxj31GvV1wuCh-12">
          <mxGeometry relative="1" as="geometry">
            <mxPoint x="120" y="180" as="targetPoint" />
          </mxGeometry>
        </mxCell>
        <mxCell id="StEzSwQOxj31GvV1wuCh-6" value="&lt;font style=&quot;vertical-align: inherit;&quot;&gt;&lt;font style=&quot;vertical-align: inherit;&quot;&gt;Администратор&lt;/font&gt;&lt;/font&gt;" style="shape=umlActor;verticalLabelPosition=bottom;verticalAlign=top;html=1;outlineConnect=0;" vertex="1" parent="1">
          <mxGeometry x="40" y="150" width="30" height="60" as="geometry" />
        </mxCell>
        <mxCell id="StEzSwQOxj31GvV1wuCh-9" style="edgeStyle=orthogonalEdgeStyle;rounded=0;orthogonalLoop=1;jettySize=auto;html=1;" edge="1" parent="1" source="StEzSwQOxj31GvV1wuCh-8" target="StEzSwQOxj31GvV1wuCh-10">
          <mxGeometry relative="1" as="geometry">
            <mxPoint x="435" y="70" as="targetPoint" />
          </mxGeometry>
        </mxCell>
        <mxCell id="StEzSwQOxj31GvV1wuCh-8" value="&lt;font style=&quot;vertical-align: inherit;&quot;&gt;&lt;font style=&quot;vertical-align: inherit;&quot;&gt;просмотр каталога курсов&lt;/font&gt;&lt;/font&gt;" style="rounded=0;whiteSpace=wrap;html=1;" vertex="1" parent="1">
          <mxGeometry x="275" y="40" width="120" height="60" as="geometry" />
        </mxCell>
        <mxCell id="StEzSwQOxj31GvV1wuCh-10" value="&lt;font style=&quot;vertical-align: inherit;&quot;&gt;&lt;font style=&quot;vertical-align: inherit;&quot;&gt;покупка курсов&lt;/font&gt;&lt;/font&gt;" style="rounded=0;whiteSpace=wrap;html=1;" vertex="1" parent="1">
          <mxGeometry x="435" y="40" width="120" height="60" as="geometry" />
        </mxCell>
        <mxCell id="StEzSwQOxj31GvV1wuCh-13" style="edgeStyle=orthogonalEdgeStyle;rounded=0;orthogonalLoop=1;jettySize=auto;html=1;" edge="1" parent="1" source="StEzSwQOxj31GvV1wuCh-12" target="StEzSwQOxj31GvV1wuCh-14">
          <mxGeometry relative="1" as="geometry">
            <mxPoint x="280" y="180" as="targetPoint" />
          </mxGeometry>
        </mxCell>
        <mxCell id="StEzSwQOxj31GvV1wuCh-12" value="&lt;font style=&quot;vertical-align: inherit;&quot;&gt;&lt;font style=&quot;vertical-align: inherit;&quot;&gt;Вход в систему&lt;/font&gt;&lt;/font&gt;" style="rounded=0;whiteSpace=wrap;html=1;" vertex="1" parent="1">
          <mxGeometry x="115" y="150" width="120" height="60" as="geometry" />
        </mxCell>
        <mxCell id="StEzSwQOxj31GvV1wuCh-14" value="&lt;font style=&quot;vertical-align: inherit;&quot;&gt;&lt;font style=&quot;vertical-align: inherit;&quot;&gt;Управление пользователями&lt;/font&gt;&lt;/font&gt;" style="rounded=0;whiteSpace=wrap;html=1;" vertex="1" parent="1">
          <mxGeometry x="275" y="150" width="120" height="60" as="geometry" />
        </mxCell>
        <mxCell id="StEzSwQOxj31GvV1wuCh-15" style="edgeStyle=orthogonalEdgeStyle;rounded=0;orthogonalLoop=1;jettySize=auto;html=1;" edge="1" parent="1" source="StEzSwQOxj31GvV1wuCh-16" target="StEzSwQOxj31GvV1wuCh-18">
          <mxGeometry relative="1" as="geometry">
            <mxPoint x="120" y="290" as="targetPoint" />
          </mxGeometry>
        </mxCell>
        <mxCell id="StEzSwQOxj31GvV1wuCh-16" value="&lt;font style=&quot;vertical-align: inherit;&quot;&gt;&lt;font style=&quot;vertical-align: inherit;&quot;&gt;Преподователь&lt;/font&gt;&lt;/font&gt;" style="shape=umlActor;verticalLabelPosition=bottom;verticalAlign=top;html=1;outlineConnect=0;" vertex="1" parent="1">
          <mxGeometry x="40" y="260" width="30" height="60" as="geometry" />
        </mxCell>
        <mxCell id="StEzSwQOxj31GvV1wuCh-17" style="edgeStyle=orthogonalEdgeStyle;rounded=0;orthogonalLoop=1;jettySize=auto;html=1;" edge="1" parent="1" source="StEzSwQOxj31GvV1wuCh-18" target="StEzSwQOxj31GvV1wuCh-19">
          <mxGeometry relative="1" as="geometry">
            <mxPoint x="280" y="290" as="targetPoint" />
          </mxGeometry>
        </mxCell>
        <mxCell id="StEzSwQOxj31GvV1wuCh-18" value="&lt;font style=&quot;vertical-align: inherit;&quot;&gt;&lt;font style=&quot;vertical-align: inherit;&quot;&gt;&lt;font style=&quot;vertical-align: inherit;&quot;&gt;&lt;font style=&quot;vertical-align: inherit;&quot;&gt;регистрация&lt;/font&gt;&lt;/font&gt;&lt;/font&gt;&lt;/font&gt;" style="rounded=0;whiteSpace=wrap;html=1;" vertex="1" parent="1">
          <mxGeometry x="115" y="260" width="120" height="60" as="geometry" />
        </mxCell>
        <mxCell id="StEzSwQOxj31GvV1wuCh-23" style="edgeStyle=orthogonalEdgeStyle;rounded=0;orthogonalLoop=1;jettySize=auto;html=1;entryX=0;entryY=0.5;entryDx=0;entryDy=0;" edge="1" parent="1" source="StEzSwQOxj31GvV1wuCh-19" target="StEzSwQOxj31GvV1wuCh-21">
          <mxGeometry relative="1" as="geometry" />
        </mxCell>
        <mxCell id="StEzSwQOxj31GvV1wuCh-19" value="&lt;font style=&quot;vertical-align: inherit;&quot;&gt;&lt;font style=&quot;vertical-align: inherit;&quot;&gt;&lt;font style=&quot;vertical-align: inherit;&quot;&gt;&lt;font style=&quot;vertical-align: inherit;&quot;&gt;вход в систему&lt;/font&gt;&lt;/font&gt;&lt;/font&gt;&lt;/font&gt;" style="rounded=0;whiteSpace=wrap;html=1;" vertex="1" parent="1">
          <mxGeometry x="275" y="260" width="120" height="60" as="geometry" />
        </mxCell>
        <mxCell id="StEzSwQOxj31GvV1wuCh-20" style="edgeStyle=orthogonalEdgeStyle;rounded=0;orthogonalLoop=1;jettySize=auto;html=1;" edge="1" parent="1" source="StEzSwQOxj31GvV1wuCh-21" target="StEzSwQOxj31GvV1wuCh-22">
          <mxGeometry relative="1" as="geometry">
            <mxPoint x="595" y="290" as="targetPoint" />
          </mxGeometry>
        </mxCell>
        <mxCell id="StEzSwQOxj31GvV1wuCh-21" value="&lt;font style=&quot;vertical-align: inherit;&quot;&gt;&lt;font style=&quot;vertical-align: inherit;&quot;&gt;&lt;font style=&quot;vertical-align: inherit;&quot;&gt;&lt;font style=&quot;vertical-align: inherit;&quot;&gt;&lt;font style=&quot;vertical-align: inherit;&quot;&gt;&lt;font style=&quot;vertical-align: inherit;&quot;&gt;просмотр каталог курсов&lt;/font&gt;&lt;/font&gt;&lt;/font&gt;&lt;/font&gt;&lt;/font&gt;&lt;/font&gt;" style="rounded=0;whiteSpace=wrap;html=1;" vertex="1" parent="1">
          <mxGeometry x="435" y="260" width="120" height="60" as="geometry" />
        </mxCell>
        <mxCell id="StEzSwQOxj31GvV1wuCh-22" value="&lt;font style=&quot;vertical-align: inherit;&quot;&gt;&lt;font style=&quot;vertical-align: inherit;&quot;&gt;&lt;font style=&quot;vertical-align: inherit;&quot;&gt;&lt;font style=&quot;vertical-align: inherit;&quot;&gt;Создание курса&lt;/font&gt;&lt;/font&gt;&lt;/font&gt;&lt;/font&gt;" style="rounded=0;whiteSpace=wrap;html=1;" vertex="1" parent="1">
          <mxGeometry x="595" y="260" width="120" height="60" as="geometry" />
        </mxCell>
        <mxCell id="StEzSwQOxj31GvV1wuCh-24" value="&lt;font style=&quot;vertical-align: inherit;&quot;&gt;&lt;font style=&quot;vertical-align: inherit;&quot;&gt;&lt;font style=&quot;vertical-align: inherit;&quot;&gt;&lt;font style=&quot;vertical-align: inherit;&quot;&gt;Студент&lt;/font&gt;&lt;/font&gt;&lt;/font&gt;&lt;/font&gt;" style="shape=umlActor;verticalLabelPosition=bottom;verticalAlign=top;html=1;outlineConnect=0;" vertex="1" parent="1">
          <mxGeometry x="435" y="770" width="30" height="60" as="geometry" />
        </mxCell>
        <mxCell id="StEzSwQOxj31GvV1wuCh-25" value="&lt;font style=&quot;vertical-align: inherit;&quot;&gt;&lt;font style=&quot;vertical-align: inherit;&quot;&gt;&lt;font style=&quot;vertical-align: inherit;&quot;&gt;&lt;font style=&quot;vertical-align: inherit;&quot;&gt;Система&lt;/font&gt;&lt;/font&gt;&lt;/font&gt;&lt;/font&gt;" style="shape=umlActor;verticalLabelPosition=bottom;verticalAlign=top;html=1;outlineConnect=0;" vertex="1" parent="1">
          <mxGeometry x="435" y="880" width="30" height="60" as="geometry" />
        </mxCell>
        <mxCell id="StEzSwQOxj31GvV1wuCh-29" style="edgeStyle=orthogonalEdgeStyle;rounded=0;orthogonalLoop=1;jettySize=auto;html=1;entryX=0.5;entryY=0.5;entryDx=0;entryDy=0;entryPerimeter=0;" edge="1" parent="1" source="StEzSwQOxj31GvV1wuCh-28" target="StEzSwQOxj31GvV1wuCh-25">
          <mxGeometry relative="1" as="geometry" />
        </mxCell>
        <mxCell id="StEzSwQOxj31GvV1wuCh-28" value="&lt;span style=&quot;font-family: Roboto, -apple-system, BlinkMacSystemFont, &amp;quot;Apple Color Emoji&amp;quot;, &amp;quot;Segoe UI&amp;quot;, Oxygen, Ubuntu, Cantarell, &amp;quot;Fira Sans&amp;quot;, &amp;quot;Droid Sans&amp;quot;, &amp;quot;Helvetica Neue&amp;quot;, sans-serif; font-size: 16px; text-align: start; white-space-collapse: preserve; background-color: rgb(255, 255, 255);&quot;&gt;&lt;font style=&quot;vertical-align: inherit;&quot;&gt;&lt;font style=&quot;vertical-align: inherit;&quot;&gt;Студент выбирает курс и добавляет его в корзину&lt;/font&gt;&lt;/font&gt;&lt;/span&gt;" style="rounded=0;whiteSpace=wrap;html=1;" vertex="1" parent="1">
          <mxGeometry x="20" y="870" width="150" height="90" as="geometry" />
        </mxCell>
        <mxCell id="StEzSwQOxj31GvV1wuCh-30" value="&lt;span style=&quot;font-family: Roboto, -apple-system, BlinkMacSystemFont, &amp;quot;Apple Color Emoji&amp;quot;, &amp;quot;Segoe UI&amp;quot;, Oxygen, Ubuntu, Cantarell, &amp;quot;Fira Sans&amp;quot;, &amp;quot;Droid Sans&amp;quot;, &amp;quot;Helvetica Neue&amp;quot;, sans-serif; font-size: 16px; text-align: start; white-space-collapse: preserve; background-color: rgb(255, 255, 255);&quot;&gt;&lt;font style=&quot;vertical-align: inherit;&quot;&gt;&lt;font style=&quot;vertical-align: inherit;&quot;&gt;Система отображает ценности корзины студента&lt;/font&gt;&lt;/font&gt;&lt;/span&gt;" style="rounded=0;whiteSpace=wrap;html=1;" vertex="1" parent="1">
          <mxGeometry x="30" y="750" width="150" height="90" as="geometry" />
        </mxCell>
        <mxCell id="StEzSwQOxj31GvV1wuCh-31" style="edgeStyle=orthogonalEdgeStyle;rounded=0;orthogonalLoop=1;jettySize=auto;html=1;entryX=0.5;entryY=0.5;entryDx=0;entryDy=0;entryPerimeter=0;" edge="1" parent="1" source="StEzSwQOxj31GvV1wuCh-30" target="StEzSwQOxj31GvV1wuCh-24">
          <mxGeometry relative="1" as="geometry" />
        </mxCell>
        <mxCell id="StEzSwQOxj31GvV1wuCh-33" value="&lt;span style=&quot;font-family: Roboto, -apple-system, BlinkMacSystemFont, &amp;quot;Apple Color Emoji&amp;quot;, &amp;quot;Segoe UI&amp;quot;, Oxygen, Ubuntu, Cantarell, &amp;quot;Fira Sans&amp;quot;, &amp;quot;Droid Sans&amp;quot;, &amp;quot;Helvetica Neue&amp;quot;, sans-serif; font-size: 16px; text-align: start; white-space-collapse: preserve; background-color: rgb(255, 255, 255);&quot;&gt;&lt;font style=&quot;vertical-align: inherit;&quot;&gt;&lt;font style=&quot;vertical-align: inherit;&quot;&gt;Студент вводит свои платежные данные&lt;/font&gt;&lt;/font&gt;&lt;/span&gt;" style="rounded=0;whiteSpace=wrap;html=1;" vertex="1" parent="1">
          <mxGeometry x="630" y="865" width="150" height="90" as="geometry" />
        </mxCell>
        <mxCell id="StEzSwQOxj31GvV1wuCh-34" style="edgeStyle=orthogonalEdgeStyle;rounded=0;orthogonalLoop=1;jettySize=auto;html=1;entryX=0.5;entryY=0.5;entryDx=0;entryDy=0;entryPerimeter=0;" edge="1" parent="1" source="StEzSwQOxj31GvV1wuCh-33" target="StEzSwQOxj31GvV1wuCh-25">
          <mxGeometry relative="1" as="geometry" />
        </mxCell>
        <mxCell id="StEzSwQOxj31GvV1wuCh-35" value="&lt;span style=&quot;font-family: Roboto, -apple-system, BlinkMacSystemFont, &amp;quot;Apple Color Emoji&amp;quot;, &amp;quot;Segoe UI&amp;quot;, Oxygen, Ubuntu, Cantarell, &amp;quot;Fira Sans&amp;quot;, &amp;quot;Droid Sans&amp;quot;, &amp;quot;Helvetica Neue&amp;quot;, sans-serif; font-size: 16px; text-align: start; white-space-collapse: preserve; background-color: rgb(255, 255, 255);&quot;&gt;&lt;font style=&quot;vertical-align: inherit;&quot;&gt;&lt;font style=&quot;vertical-align: inherit;&quot;&gt;Система обрабатывает платеж и регистрирует студента на курсе&lt;/font&gt;&lt;/font&gt;&lt;/span&gt;" style="rounded=0;whiteSpace=wrap;html=1;" vertex="1" parent="1">
          <mxGeometry x="630" y="730" width="170" height="100" as="geometry" />
        </mxCell>
        <mxCell id="StEzSwQOxj31GvV1wuCh-36" style="edgeStyle=orthogonalEdgeStyle;rounded=0;orthogonalLoop=1;jettySize=auto;html=1;entryX=0.5;entryY=0.5;entryDx=0;entryDy=0;entryPerimeter=0;" edge="1" parent="1" source="StEzSwQOxj31GvV1wuCh-35" target="StEzSwQOxj31GvV1wuCh-24">
          <mxGeometry relative="1" as="geometry" />
        </mxCell>
        <mxCell id="StEzSwQOxj31GvV1wuCh-37" value="&lt;span style=&quot;font-family: Roboto, -apple-system, BlinkMacSystemFont, &amp;quot;Apple Color Emoji&amp;quot;, &amp;quot;Segoe UI&amp;quot;, Oxygen, Ubuntu, Cantarell, &amp;quot;Fira Sans&amp;quot;, &amp;quot;Droid Sans&amp;quot;, &amp;quot;Helvetica Neue&amp;quot;, sans-serif; font-size: 16px; text-align: start; white-space-collapse: preserve; background-color: rgb(255, 255, 255);&quot;&gt;&lt;font style=&quot;vertical-align: inherit;&quot;&gt;&lt;font style=&quot;vertical-align: inherit;&quot;&gt;Система отправляет электронное письмо студенту с подтверждением покупки.&lt;/font&gt;&lt;/font&gt;&lt;/span&gt;" style="rounded=0;whiteSpace=wrap;html=1;" vertex="1" parent="1">
          <mxGeometry x="345" y="610" width="170" height="100" as="geometry" />
        </mxCell>
        <mxCell id="StEzSwQOxj31GvV1wuCh-38" style="edgeStyle=orthogonalEdgeStyle;rounded=0;orthogonalLoop=1;jettySize=auto;html=1;entryX=0.5;entryY=0;entryDx=0;entryDy=0;entryPerimeter=0;" edge="1" parent="1" source="StEzSwQOxj31GvV1wuCh-37" target="StEzSwQOxj31GvV1wuCh-24">
          <mxGeometry relative="1" as="geometry" />
        </mxCell>
      </root>
    </mxGraphModel>
  </diagram>
</mxfile>
